# Blender 5.1.1
# www.blender.org
mtllib table_big.mtl
o temp_Cube.006
v -3.100000 -0.800000 0.000000
v -2.976000 -0.800000 0.000000
v -3.100000 -0.800000 1.600000
v -2.976000 -0.800000 1.536000
v -3.100000 0.800000 0.000000
v -2.976000 0.800000 0.000000
v -3.100000 0.800000 1.600000
v -2.976000 0.800000 1.536000
v 3.100000 -0.800000 0.000000
v 2.976000 -0.800000 0.000000
v 3.100000 -0.800000 1.600000
v 2.976000 -0.800000 1.536000
v 3.100000 0.800000 0.000000
v 2.976000 0.800000 0.000000
v 3.100000 0.800000 1.600000
v 2.976000 0.800000 1.536000
v -3.100000 0.676152 0.000000
v -3.100000 0.676152 1.600000
v 3.100000 0.676152 0.000000
v 3.100000 0.676152 1.600000
v -3.100000 0.676152 2.050000
v -3.100000 0.800000 2.050000
v 3.100000 0.800000 2.050000
v 3.100000 0.676152 2.050000
v -2.976000 0.676152 0.000000
v 2.976000 0.676152 0.000000
vn -1.0000 -0.0000 -0.0000
vn -0.0000 1.0000 -0.0000
vn 1.0000 -0.0000 -0.0000
vn -0.0000 -1.0000 -0.0000
vn -0.0000 -0.0000 -1.0000
vn -0.0000 -0.0000 1.0000
vt 0.621352 0.969939
vt 0.621352 0.776000
vt 0.636364 0.776000
vt 0.636364 0.969939
vt 0.248485 0.736485
vt 0.248485 0.751515
vt 0.054545 0.751515
vt 0.054546 -0.000000
vt 0.248485 -0.000000
vt 0.248485 0.015030
vt 0.062303 0.015030
vt 0.062303 0.736485
vt 0.015012 1.000000
vt 0.015012 0.806061
vt 0.193939 0.806061
vt 0.193939 1.000000
vt 0.442424 0.736485
vt 0.442424 0.751515
vt 0.248485 0.751515
vt 0.248485 -0.000000
vt 0.442424 0.000000
vt 0.442424 0.015030
vt 0.256243 0.015030
vt 0.256242 0.736485
vt 0.899879 0.178928
vt 0.884849 0.178928
vt 0.884849 0.000000
vt 0.899879 0.000000
vt 0.899879 0.193939
vt 0.899879 0.372867
vt 0.884849 0.372867
vt 0.884849 0.193939
vt 0.815291 0.000000
vt 0.815291 0.751515
vt 0.636364 0.751515
vt 0.636364 -0.000000
vt 0.884849 0.193939
vt 0.899879 0.193939
vt 0.899879 0.387879
vt 0.884849 0.387879
vt 0.000000 1.000000
vt 0.000000 0.806061
vt 0.442424 0.969939
vt 0.442424 0.776000
vt 0.869837 0.000000
vt 0.869837 0.751515
vt 0.815292 0.751515
vt 0.815292 0.000000
vt 0.884849 0.000000
vt 0.884849 0.751515
vt 0.869837 0.000000
vt 0.000000 0.751515
vt 0.000000 -0.000000
vt 0.000000 0.751515
vt 0.015012 0.751515
vt 0.621352 0.721455
vt 0.636364 0.721455
vt 0.380121 0.945455
vt 0.193939 0.945455
vt 0.193939 0.751515
vt 0.380121 0.751515
vt 0.380121 0.930443
vt 0.636364 0.945455
vt 0.636364 0.751515
vt 0.822546 0.751515
vt 0.822546 0.766527
vt 0.822546 0.945455
vt 0.442424 0.000000
vt 0.636364 0.000000
vt 0.636364 0.721455
vt 0.442424 0.721455
s 0
usemtl Material.001
f 17/1/1 18/2/1 7/3/1 5/4/1
f 6/5/2 5/6/2 7/7/2 15/8/2 13/9/2 14/10/2 16/11/2 8/12/2
f 19/13/3 20/14/3 11/15/3 9/16/3
f 10/17/4 9/18/4 11/19/4 3/20/4 1/21/4 2/22/4 4/23/4 12/24/4
f 26/25/5 19/26/5 9/27/5 10/28/5
f 1/29/5 17/30/5 25/31/5 2/32/5
f 20/33/6 18/34/6 3/35/6 11/36/6
f 13/37/5 19/26/5 26/25/5 14/38/5
f 25/31/5 17/30/5 5/39/5 6/40/5
f 13/41/3 15/42/3 20/14/3 19/13/3
f 1/43/1 3/44/1 18/2/1 17/1/1
f 18/45/4 20/46/4 24/47/4 21/48/4
f 23/49/6 22/50/6 21/46/6 24/51/6
f 15/8/2 7/7/2 22/52/2 23/53/2
f 20/14/3 15/42/3 23/54/3 24/55/3
f 7/3/1 18/2/1 21/56/1 22/57/1
f 6/58/3 8/59/3 4/60/3 2/61/3 25/62/3
f 12/63/1 16/64/1 14/65/1 26/66/1 10/67/1
f 4/68/5 8/69/5 16/70/5 12/71/5
