# Blender 5.1.1
# www.blender.org
mtllib table_small.mtl
o temp_Cube.007
v -1.000000 -1.000000 0.000000
v -1.000000 -1.000000 2.000000
v -1.000000 1.000000 0.000000
v -1.000000 1.000000 2.000000
v 1.000000 -1.000000 0.000000
v 1.000000 -1.000000 2.000000
v 1.000000 1.000000 0.000000
v 1.000000 1.000000 2.000000
v 0.862385 0.666667 1.647059
v -0.862385 0.666667 1.647059
v -0.862385 0.666667 0.000000
v 0.862385 0.666667 0.000000
v -0.862385 -0.666667 1.647059
v 0.862385 -0.666667 1.647059
v -0.862385 -0.666667 0.000000
v 0.862385 -0.666667 0.000000
v -0.862385 -0.454106 1.647059
v 0.862385 0.454106 1.647059
v -1.000000 -0.666667 1.647059
v -1.000000 -0.666667 0.000000
v -1.000000 0.666667 0.000000
v -1.000000 0.666667 1.647059
v -0.862385 1.000000 1.647059
v -0.862385 1.000000 0.000000
v 0.862385 1.000000 0.000000
v 0.862385 1.000000 1.647059
v 1.000000 0.666667 1.647059
v 1.000000 -0.666667 0.000000
v 1.000000 -0.666667 1.647059
v 1.000000 0.666667 0.000000
v 0.862385 -1.000000 1.647059
v -0.862385 -1.000000 0.000000
v -0.862385 -1.000000 1.647059
v 0.862385 -1.000000 0.000000
vn -1.0000 -0.0000 -0.0000
vn -0.0000 1.0000 -0.0000
vn 1.0000 -0.0000 -0.0000
vn -0.0000 -1.0000 -0.0000
vn -0.0000 -0.0000 -1.0000
vn -0.0000 -0.0000 1.0000
vt 0.666667 0.333333
vt 0.333333 0.333333
vt 0.333333 -0.000000
vt 0.666667 0.000000
vt 0.666667 0.055556
vt 0.392157 0.055556
vt 0.392157 0.277778
vt 0.666667 0.277778
vt 0.666667 0.666667
vt 0.333333 0.666667
vt 0.333333 0.333333
vt 0.666667 0.333333
vt 0.666667 0.356269
vt 0.392157 0.356269
vt 0.392157 0.643731
vt 0.666667 0.643731
vt 0.333333 0.944445
vt 0.333333 1.000000
vt 0.000000 1.000000
vt 0.000000 0.666667
vt 0.333333 0.666667
vt 0.333333 0.722222
vt 0.058824 0.722222
vt 0.058824 0.944444
vt 0.666667 0.977064
vt 0.666667 1.000000
vt 0.333333 0.666667
vt 0.666667 0.666667
vt 0.666667 0.689602
vt 0.392157 0.689602
vt 0.392157 0.977064
vt 0.800713 0.604575
vt 0.777778 0.604575
vt 0.777778 0.549020
vt 0.800713 0.549020
vt 0.800713 0.660131
vt 0.777778 0.660131
vt 0.800713 0.715686
vt 0.777778 0.715686
vt 0.800713 0.660131
vt 0.777778 0.715686
vt 0.800713 0.715686
vt 0.800713 0.771242
vt 0.777778 0.771242
vt 0.333333 0.000000
vt 0.333333 0.333333
vt 0.000000 0.333333
vt 0.000000 0.000000
vt 0.745158 0.274510
vt 0.745158 0.549020
vt 0.722222 0.549020
vt 0.722222 0.274510
vt 0.722222 0.823529
vt 0.722222 0.549020
vt 0.745158 0.549020
vt 0.745158 0.823529
vt 0.800713 0.000000
vt 0.800713 0.274510
vt 0.777778 0.274510
vt 0.777778 0.000000
vt 0.800713 0.274510
vt 0.800713 0.549020
vt 0.277778 0.356269
vt 0.090982 0.356269
vt 0.055556 0.356269
vt 0.055556 0.333333
vt 0.277778 0.333333
vt 0.055556 0.643731
vt 0.242351 0.643731
vt 0.277778 0.643731
vt 0.277778 0.666667
vt 0.055556 0.666667
vt 0.666667 0.274510
vt 0.666667 0.000000
vt 0.722222 0.000000
vt 0.666667 0.549020
vt 0.666667 0.274510
vt 0.666667 0.823529
vt 0.666667 0.549020
vt 0.722222 0.823529
vt 0.722222 0.274510
vt 0.722222 0.000000
vt 0.000000 0.643731
vt 0.000000 0.356269
vt 0.333333 0.356269
vt 0.333333 0.643731
s 0
usemtl Material.001
f 1/1/1 2/2/1 4/3/1 3/4/1 21/5/1 22/6/1 19/7/1 20/8/1
f 3/9/2 4/10/2 8/11/2 7/12/2 25/13/2 26/14/2 23/15/2 24/16/2
f 30/17/3 7/18/3 8/19/3 6/20/3 5/21/3 28/22/3 29/23/3 27/24/3
f 34/25/4 5/26/4 6/18/4 2/27/4 1/28/4 32/29/4 33/30/4 31/31/4
f 16/32/5 28/33/5 5/34/5 34/35/5
f 25/36/5 7/37/5 30/33/5 12/32/5
f 20/38/5 15/39/5 32/37/5 1/40/5
f 11/41/5 21/42/5 3/43/5 24/44/5
f 8/45/6 4/46/6 2/47/6 6/48/6
f 9/49/4 12/50/4 30/51/4 27/52/4
f 11/53/4 10/54/4 22/55/4 21/56/4
f 13/57/2 15/58/2 20/59/2 19/60/2
f 16/34/2 14/59/2 29/61/2 28/62/2
f 10/63/5 17/64/5 13/65/5 19/66/5 22/67/5
f 14/68/5 18/69/5 9/70/5 27/71/5 29/72/5
f 10/63/5 9/70/5 18/69/5 17/64/5
f 14/68/5 13/65/5 17/64/5 18/69/5
f 24/73/3 23/74/3 10/75/3 11/52/3
f 15/76/3 13/77/3 33/52/3 32/51/3
f 34/78/1 31/79/1 14/51/1 16/80/1
f 12/81/1 9/82/1 26/60/1 25/59/1
f 13/65/5 14/68/5 31/83/5 33/84/5
f 9/70/5 10/63/5 23/85/5 26/86/5
